<svg width="50" height="50" viewBox="0 0 50 50" fill="none" xmlns="http://www.w3.org/2000/svg">
<path d="M31.7283 8.95386H25.4297V35.6885H31.7283V8.95386Z" fill="#3A77FF"/>
<path d="M12.2248 11.3037C6.18458 11.3037 1.28809 16.2366 1.28809 22.3217C1.28809 28.4067 6.18458 33.3396 12.2248 33.3396C18.265 33.3396 23.1615 28.4067 23.1615 22.3217C23.1615 16.2366 18.2641 11.3037 12.2248 11.3037ZM12.2248 25.6603C10.3943 25.6603 8.91073 24.1657 8.91073 22.3217C8.91073 20.4776 10.3943 18.983 12.2248 18.983C14.0552 18.983 15.5388 20.4776 15.5388 22.3217C15.5388 24.1657 14.0552 25.6603 12.2248 25.6603Z" fill="#3A77FF"/>
<path d="M47.652 15.6267H43.4691L41.0135 18.1006L38.557 15.6267H34.375V19.9123L36.7951 22.3503L34.375 24.7893V29.0146H38.616L41.0135 26.5992L43.4101 29.0146H47.652V24.7893L45.231 22.3503L47.652 19.9123V15.6267Z" fill="#3A77FF"/>
<path d="M10.2695 42.986V41.2905C10.2695 40.9306 10.1333 40.6449 9.72752 40.6449C9.38155 40.6449 9.04078 40.9393 9.04078 41.5752V42.986H8.72602V41.2905C8.72602 40.9306 8.58902 40.6449 8.18322 40.6449C7.83638 40.6449 7.49561 40.9393 7.49561 41.5752V42.986H7.17825V41.0354C7.17825 40.8397 7.17826 40.6397 7.15918 40.4353H7.46526V40.8651L7.4748 40.8703C7.57625 40.6956 7.72539 40.375 8.2734 40.375C8.49884 40.375 8.86996 40.4693 8.9506 40.9157H8.96101C9.0746 40.6161 9.37721 40.375 9.77868 40.375C10.2955 40.375 10.5859 40.7358 10.5859 41.2311V42.9869H10.2695V42.986Z" fill="#17376D"/>
<path d="M13.0746 42.9065C12.8535 42.9965 12.5674 43.0463 12.3315 43.0463C11.4843 43.0463 11.167 42.4759 11.167 41.7106C11.167 40.9297 11.5979 40.375 12.2448 40.375C12.968 40.375 13.2636 40.9559 13.2636 41.6408V41.8006H11.513C11.513 42.3405 11.8026 42.7764 12.3566 42.7764C12.5873 42.7764 12.9237 42.6811 13.0737 42.5868V42.9065H13.0746ZM12.9177 41.5307C12.9177 41.0852 12.7382 40.6449 12.2665 40.6449C11.7991 40.6449 11.5138 41.1096 11.5138 41.5307H12.9177Z" fill="#17376D"/>
<path d="M16.9572 42.986V41.2905C16.9572 40.9306 16.8219 40.6449 16.4161 40.6449C16.0693 40.6449 15.7276 40.9393 15.7276 41.5752V42.986H15.4129V41.2905C15.4129 40.9306 15.2776 40.6449 14.8709 40.6449C14.5241 40.6449 14.1833 40.9393 14.1833 41.5752V42.986H13.8677V41.0354C13.8677 40.8397 13.8677 40.6397 13.8486 40.4353H14.153V40.8651L14.1634 40.8703C14.2631 40.6956 14.4131 40.375 14.9611 40.375C15.1874 40.375 15.5585 40.4693 15.6383 40.9157H15.6479C15.764 40.6161 16.0641 40.375 16.4664 40.375C16.9832 40.375 17.2737 40.7358 17.2737 41.2311V42.9869H16.958L16.9572 42.986Z" fill="#17376D"/>
<path d="M18.0161 39.2341H18.3317V40.865H18.3421C18.3872 40.7401 18.6387 40.375 19.1399 40.375C19.8925 40.375 20.1943 40.9358 20.1943 41.7106C20.1943 42.4653 19.8422 43.0463 19.1399 43.0463C18.774 43.0463 18.5121 42.9065 18.3421 42.5807H18.3317V42.986H18.0161V39.2341ZM19.0887 40.6449C18.5112 40.6449 18.3309 41.245 18.3309 41.7106C18.3309 42.1762 18.5268 42.7763 19.0887 42.7763C19.6913 42.7763 19.8474 42.2059 19.8474 41.7106C19.8474 41.2153 19.6913 40.6449 19.0887 40.6449Z" fill="#17376D"/>
<path d="M22.5509 42.9065C22.3315 42.9965 22.0445 43.0463 21.8087 43.0463C20.9606 43.0463 20.645 42.4759 20.645 41.7106C20.645 40.9297 21.076 40.375 21.7228 40.375C22.4451 40.375 22.7417 40.9559 22.7417 41.6408V41.8006H20.991C20.991 42.3405 21.2806 42.7764 21.8347 42.7764C22.0653 42.7764 22.4009 42.6811 22.5509 42.5868V42.9065ZM22.3948 41.5307C22.3948 41.0852 22.2145 40.6449 21.7428 40.6449C21.2763 40.6449 20.991 41.1096 20.991 41.5307H22.3948Z" fill="#17376D"/>
<path d="M23.3436 41.0048C23.3436 40.7253 23.3436 40.6205 23.3228 40.4353H23.6392V40.9253H23.6505C23.765 40.6397 23.98 40.375 24.3078 40.375C24.3815 40.375 24.4725 40.3898 24.5272 40.4056V40.7349C24.4621 40.7148 24.3771 40.7052 24.2965 40.7052C23.7953 40.7052 23.6583 41.266 23.6583 41.7255V42.986H23.3436V41.0048Z" fill="#17376D"/>
<path d="M27.4069 40.3743C28.2358 40.3743 28.6017 41.0154 28.6017 41.7099C28.6017 42.4052 28.2358 43.0455 27.4069 43.0455C26.5797 43.0455 26.2129 42.4052 26.2129 41.7099C26.2129 41.0146 26.5805 40.3743 27.4069 40.3743ZM27.4069 42.7765C27.9592 42.7765 28.2549 42.3013 28.2549 41.7108C28.2549 41.1203 27.9592 40.6451 27.4069 40.6451C26.8554 40.6451 26.5597 41.1194 26.5597 41.7108C26.5597 42.3013 26.8563 42.7765 27.4069 42.7765Z" fill="#17376D"/>
<path d="M29.4151 40.7052H28.8975V40.4353H29.4151V40.2501C29.4151 39.7147 29.4342 39.1748 30.0923 39.1748C30.1912 39.1748 30.3273 39.1897 30.388 39.2246L30.3672 39.5006C30.303 39.4657 30.2085 39.4456 30.1175 39.4456C29.6857 39.4456 29.7316 39.9103 29.7316 40.2152V40.4362H30.3082V40.7061H29.7316V42.9869H29.416V40.7061L29.4151 40.7052Z" fill="#17376D"/>
<path d="M33.2768 39.4946H34.0693L35.4437 42.987H34.6659L34.3659 42.1869H32.9447L32.6378 42.987H31.9111L33.2759 39.4946H33.2768ZM33.6635 40.1952H33.6531L33.1459 41.6357H34.1708L33.6644 40.1952H33.6635Z" fill="#17376D"/>
<path d="M37.7755 40.134C37.5561 40.0388 37.3098 39.9838 37.0653 39.9838C36.8243 39.9838 36.513 40.0895 36.513 40.4686C36.513 41.074 38.0486 40.8198 38.0486 41.9903C38.0486 42.7555 37.4399 43.0464 36.7341 43.0464C36.3534 43.0464 36.1826 42.9957 35.8358 42.9119L35.9008 42.2812C36.141 42.4113 36.4167 42.4961 36.6933 42.4961C36.9595 42.4961 37.315 42.3607 37.315 42.0462C37.315 41.3806 35.7803 41.6557 35.7803 40.5C35.7803 39.7191 36.3872 39.4343 37.0038 39.4343C37.3064 39.4343 37.5856 39.4745 37.8431 39.5592L37.7755 40.134Z" fill="#17376D"/>
<path d="M39.3234 40.044H38.3193V39.4937H41.0299V40.044H40.0258V42.9861H39.3234V40.044Z" fill="#17376D"/>
<path d="M41.4141 39.4944H42.1728C42.9263 39.4944 43.8237 39.4691 43.8237 40.4405C43.8237 40.8502 43.5471 41.19 43.1014 41.2511V41.2607C43.2913 41.2765 43.4014 41.4651 43.4717 41.6206L44.0344 42.9869H43.2523L42.83 41.8958C42.7303 41.6364 42.6393 41.5359 42.3427 41.5359H42.1173V42.9869H41.4149V39.4944H41.4141ZM42.1164 40.9856H42.3479C42.693 40.9856 43.091 40.9358 43.091 40.5008C43.091 40.0797 42.6991 40.0448 42.3479 40.0448H42.1164V40.9856Z" fill="#17376D"/>
<path d="M45.5449 39.4946H46.3383L47.7118 42.987H46.934L46.6331 42.1869H45.2128L44.9067 42.987H44.1792L45.5449 39.4946ZM45.929 40.1952H45.9203L45.4131 41.6357H46.4362L45.929 40.1952Z" fill="#17376D"/>
</svg>
